<svg width="601" height="128" viewBox="0 0 601 128" fill="none" xmlns="http://www.w3.org/2000/svg">
<rect width="601" height="128" fill="white"/>
<mask id="path-1-inside-1_56_81" fill="white">
<path fill-rule="evenodd" clip-rule="evenodd" d="M129 114.131L167 64.2295L129 14.3283V14.2295H128.925L128.75 14V14.2295H29V114.229H128.75V114.459L128.925 114.229H129V114.131Z"/>
</mask>
<path fill-rule="evenodd" clip-rule="evenodd" d="M129 114.131L167 64.2295L129 14.3283V14.2295H128.925L128.75 14V14.2295H29V114.229H128.75V114.459L128.925 114.229H129V114.131Z" fill="white"/>
<path d="M167 64.2295L167.796 64.8353L168.257 64.2295L167.796 63.6236L167 64.2295ZM129 114.131L128.204 113.525L128 113.793V114.131H129ZM129 14.3283H128V14.6657L128.204 14.9341L129 14.3283ZM129 14.2295H130V13.2295H129V14.2295ZM128.925 14.2295L128.129 14.8353L128.429 15.2295H128.925V14.2295ZM128.75 14L129.546 13.3942L127.75 11.0362V14H128.75ZM128.75 14.2295V15.2295H129.75V14.2295H128.75ZM29 14.2295V13.2295H28V14.2295H29ZM29 114.229H28V115.229H29V114.229ZM128.75 114.229H129.75V113.229H128.75V114.229ZM128.75 114.459H127.75V117.423L129.546 115.065L128.75 114.459ZM128.925 114.229V113.229H128.429L128.129 113.624L128.925 114.229ZM129 114.229V115.229H130V114.229H129ZM166.204 63.6236L128.204 113.525L129.796 114.736L167.796 64.8353L166.204 63.6236ZM128.204 14.9341L166.204 64.8353L167.796 63.6236L129.796 13.7225L128.204 14.9341ZM128 14.2295V14.3283H130V14.2295H128ZM128.925 15.2295H129V13.2295H128.925V15.2295ZM127.954 14.6058L128.129 14.8353L129.72 13.6236L129.546 13.3942L127.954 14.6058ZM129.75 14.2295V14H127.75V14.2295H129.75ZM29 15.2295H128.75V13.2295H29V15.2295ZM30 114.229V14.2295H28V114.229H30ZM128.75 113.229H29V115.229H128.75V113.229ZM129.75 114.459V114.229H127.75V114.459H129.75ZM128.129 113.624L127.954 113.853L129.546 115.065L129.72 114.835L128.129 113.624ZM129 113.229H128.925V115.229H129V113.229ZM128 114.131V114.229H130V114.131H128Z" fill="black" mask="url(#path-1-inside-1_56_81)"/>
<mask id="path-3-inside-2_56_81" fill="white">
<path fill-rule="evenodd" clip-rule="evenodd" d="M155 113.901L193 64L155.1 14.2295H270.652V14L270.855 14.2295H270.942V14.3283L315 64.2295L270.942 114.131V114.229H270.855L270.652 114.459V114.229H155V113.901Z"/>
</mask>
<path fill-rule="evenodd" clip-rule="evenodd" d="M155 113.901L193 64L155.1 14.2295H270.652V14L270.855 14.2295H270.942V14.3283L315 64.2295L270.942 114.131V114.229H270.855L270.652 114.459V114.229H155V113.901Z" fill="#00D1FF" fill-opacity="0.17"/>
<path d="M193 64L193.796 64.6058L194.257 64L193.796 63.3942L193 64ZM155 113.901L154.204 113.295L154 113.564V113.901H155ZM155.1 14.2295V13.2295H153.081L154.304 14.8353L155.1 14.2295ZM270.652 14.2295V15.2295H271.652V14.2295H270.652ZM270.652 14L271.402 13.3382L269.652 11.3565V14H270.652ZM270.855 14.2295L270.105 14.8914L270.404 15.2295H270.855V14.2295ZM270.942 14.2295H271.942V13.2295H270.942V14.2295ZM270.942 14.3283H269.942V14.7066L270.192 14.9902L270.942 14.3283ZM315 64.2295L315.75 64.8913L316.334 64.2295L315.75 63.5676L315 64.2295ZM270.942 114.131L270.192 113.469L269.942 113.752V114.131H270.942ZM270.942 114.229V115.229H271.942V114.229H270.942ZM270.855 114.229V113.229H270.404L270.105 113.568L270.855 114.229ZM270.652 114.459H269.652V117.103L271.402 115.121L270.652 114.459ZM270.652 114.229H271.652V113.229H270.652V114.229ZM155 114.229H154V115.229H155V114.229ZM192.204 63.3942L154.204 113.295L155.796 114.507L193.796 64.6058L192.204 63.3942ZM154.304 14.8353L192.204 64.6058L193.796 63.3942L155.895 13.6237L154.304 14.8353ZM270.652 13.2295H155.1V15.2295H270.652V13.2295ZM269.652 14V14.2295H271.652V14H269.652ZM271.604 13.5676L271.402 13.3382L269.903 14.6619L270.105 14.8914L271.604 13.5676ZM270.942 13.2295H270.855V15.2295H270.942V13.2295ZM271.942 14.3283V14.2295H269.942V14.3283H271.942ZM315.75 63.5676L271.692 13.6665L270.192 14.9902L314.25 64.8913L315.75 63.5676ZM271.692 114.793L315.75 64.8913L314.25 63.5676L270.192 113.469L271.692 114.793ZM271.942 114.229V114.131H269.942V114.229H271.942ZM270.855 115.229H270.942V113.229H270.855V115.229ZM271.402 115.121L271.604 114.891L270.105 113.568L269.903 113.797L271.402 115.121ZM269.652 114.229V114.459H271.652V114.229H269.652ZM155 115.229H270.652V113.229H155V115.229ZM154 113.901V114.229H156V113.901H154Z" fill="black" mask="url(#path-3-inside-2_56_81)"/>
<mask id="path-5-inside-3_56_81" fill="white">
<path fill-rule="evenodd" clip-rule="evenodd" d="M300 113.901L338 64L300.099 14.2295H415.652V14L415.855 14.2295H415.942V14.3283L460 64.2295L415.942 114.131V114.229H415.855L415.652 114.459V114.229H300V113.901Z"/>
</mask>
<path fill-rule="evenodd" clip-rule="evenodd" d="M300 113.901L338 64L300.099 14.2295H415.652V14L415.855 14.2295H415.942V14.3283L460 64.2295L415.942 114.131V114.229H415.855L415.652 114.459V114.229H300V113.901Z" fill="white"/>
<path d="M338 64L338.796 64.6058L339.257 64L338.796 63.3942L338 64ZM300 113.901L299.204 113.295L299 113.564V113.901H300ZM300.099 14.2295V13.2295H298.081L299.304 14.8353L300.099 14.2295ZM415.652 14.2295V15.2295H416.652V14.2295H415.652ZM415.652 14L416.402 13.3381L414.652 11.3565V14H415.652ZM415.855 14.2295L415.105 14.8913L415.404 15.2295H415.855V14.2295ZM415.942 14.2295H416.942V13.2295H415.942V14.2295ZM415.942 14.3283H414.942V14.7066L415.192 14.9902L415.942 14.3283ZM460 64.2295L460.75 64.8913L461.334 64.2295L460.75 63.5676L460 64.2295ZM415.942 114.131L415.192 113.469L414.942 113.752V114.131H415.942ZM415.942 114.229V115.229H416.942V114.229H415.942ZM415.855 114.229V113.229H415.404L415.105 113.568L415.855 114.229ZM415.652 114.459H414.652V117.102L416.402 115.121L415.652 114.459ZM415.652 114.229H416.652V113.229H415.652V114.229ZM300 114.229H299V115.229H300V114.229ZM337.204 63.3942L299.204 113.295L300.796 114.507L338.796 64.6058L337.204 63.3942ZM299.304 14.8353L337.204 64.6058L338.796 63.3942L300.895 13.6236L299.304 14.8353ZM415.652 13.2295H300.099V15.2295H415.652V13.2295ZM414.652 14V14.2295H416.652V14H414.652ZM416.604 13.5676L416.402 13.3381L414.903 14.6619L415.105 14.8913L416.604 13.5676ZM415.942 13.2295H415.855V15.2295H415.942V13.2295ZM416.942 14.3283V14.2295H414.942V14.3283H416.942ZM460.75 63.5676L416.692 13.6664L415.192 14.9902L459.25 64.8913L460.75 63.5676ZM416.692 114.792L460.75 64.8913L459.25 63.5676L415.192 113.469L416.692 114.792ZM416.942 114.229V114.131H414.942V114.229H416.942ZM415.855 115.229H415.942V113.229H415.855V115.229ZM416.402 115.121L416.604 114.891L415.105 113.568L414.903 113.797L416.402 115.121ZM414.652 114.229V114.459H416.652V114.229H414.652ZM300 115.229H415.652V113.229H300V115.229ZM299 113.901V114.229H301V113.901H299Z" fill="black" mask="url(#path-5-inside-3_56_81)"/>
<path d="M60.1278 44.9091C60.0256 44.0455 59.6108 43.375 58.8835 42.8977C58.1563 42.4205 57.2642 42.1818 56.2074 42.1818C55.4347 42.1818 54.7585 42.3068 54.179 42.5568C53.6051 42.8068 53.1563 43.1506 52.8324 43.5881C52.5142 44.0256 52.3551 44.5227 52.3551 45.0795C52.3551 45.5455 52.4659 45.946 52.6875 46.2812C52.9148 46.6108 53.2045 46.8864 53.5568 47.108C53.9091 47.3239 54.2784 47.5028 54.6648 47.6449C55.0511 47.7812 55.4062 47.892 55.7301 47.9773L57.5028 48.4545C57.9574 48.5739 58.4631 48.7386 59.0199 48.9489C59.5824 49.1591 60.1193 49.446 60.6307 49.8097C61.1477 50.1676 61.5739 50.6278 61.9091 51.1903C62.2443 51.7528 62.4119 52.4432 62.4119 53.2614C62.4119 54.2045 62.1648 55.0568 61.6705 55.8182C61.1818 56.5795 60.4659 57.1847 59.5227 57.6335C58.5852 58.0824 57.446 58.3068 56.1051 58.3068C54.8551 58.3068 53.7727 58.1051 52.858 57.7017C51.9489 57.2983 51.233 56.7358 50.7102 56.0142C50.1932 55.2926 49.9006 54.4545 49.8324 53.5H52.0142C52.071 54.1591 52.2926 54.7045 52.679 55.1364C53.071 55.5625 53.5653 55.8807 54.1619 56.0909C54.7642 56.2955 55.4119 56.3977 56.1051 56.3977C56.9119 56.3977 57.6364 56.267 58.2784 56.0057C58.9205 55.7386 59.429 55.3693 59.804 54.8977C60.179 54.4205 60.3665 53.8636 60.3665 53.2273C60.3665 52.6477 60.2045 52.1761 59.8807 51.8125C59.5568 51.4489 59.1307 51.1534 58.6023 50.9261C58.0739 50.6989 57.5028 50.5 56.8892 50.3295L54.7415 49.7159C53.3778 49.3239 52.2983 48.7642 51.5028 48.0369C50.7074 47.3097 50.3097 46.358 50.3097 45.1818C50.3097 44.2045 50.5739 43.3523 51.1023 42.625C51.6364 41.892 52.3523 41.3239 53.25 40.9205C54.1534 40.5114 55.1619 40.3068 56.2756 40.3068C57.4006 40.3068 58.4006 40.5085 59.2756 40.9119C60.1506 41.3097 60.8438 41.8551 61.3551 42.5483C61.8722 43.2415 62.1449 44.0284 62.1733 44.9091H60.1278ZM71.103 58.2727C69.8416 58.2727 68.7536 57.9943 67.8388 57.4375C66.9297 56.875 66.228 56.0909 65.7337 55.0852C65.245 54.0739 65.0007 52.8977 65.0007 51.5568C65.0007 50.2159 65.245 49.0341 65.7337 48.0114C66.228 46.983 66.9155 46.1818 67.7962 45.608C68.6825 45.0284 69.7166 44.7386 70.8984 44.7386C71.5803 44.7386 72.2536 44.8523 72.9183 45.0795C73.5831 45.3068 74.1882 45.6761 74.7337 46.1875C75.2791 46.6932 75.7138 47.3636 76.0376 48.1989C76.3615 49.0341 76.5234 50.0625 76.5234 51.2841V52.1364H66.4325V50.3977H74.478C74.478 49.6591 74.3303 49 74.0348 48.4205C73.745 47.8409 73.3303 47.3835 72.7905 47.0483C72.2564 46.7131 71.6257 46.5455 70.8984 46.5455C70.0973 46.5455 69.4041 46.7443 68.8189 47.142C68.2393 47.5341 67.7933 48.0455 67.4808 48.6761C67.1683 49.3068 67.0121 49.983 67.0121 50.7045V51.8636C67.0121 52.8523 67.1825 53.6903 67.5234 54.3778C67.87 55.0597 68.3501 55.5795 68.9638 55.9375C69.5774 56.2898 70.2905 56.4659 71.103 56.4659C71.6314 56.4659 72.1087 56.392 72.5348 56.2443C72.9666 56.0909 73.3388 55.8636 73.6513 55.5625C73.9638 55.2557 74.2053 54.875 74.3757 54.4205L76.3189 54.9659C76.1143 55.625 75.7706 56.2045 75.2876 56.7045C74.8047 57.1989 74.2081 57.5852 73.4979 57.8636C72.7876 58.1364 71.9893 58.2727 71.103 58.2727ZM81.5945 40.5455V58H79.5831V40.5455H81.5945ZM90.767 58.2727C89.5057 58.2727 88.4176 57.9943 87.5028 57.4375C86.5938 56.875 85.892 56.0909 85.3977 55.0852C84.9091 54.0739 84.6648 52.8977 84.6648 51.5568C84.6648 50.2159 84.9091 49.0341 85.3977 48.0114C85.892 46.983 86.5795 46.1818 87.4602 45.608C88.3466 45.0284 89.3807 44.7386 90.5625 44.7386C91.2443 44.7386 91.9176 44.8523 92.5824 45.0795C93.2472 45.3068 93.8523 45.6761 94.3977 46.1875C94.9432 46.6932 95.3778 47.3636 95.7017 48.1989C96.0256 49.0341 96.1875 50.0625 96.1875 51.2841V52.1364H86.0966V50.3977H94.142C94.142 49.6591 93.9943 49 93.6989 48.4205C93.4091 47.8409 92.9943 47.3835 92.4545 47.0483C91.9205 46.7131 91.2898 46.5455 90.5625 46.5455C89.7614 46.5455 89.0682 46.7443 88.483 47.142C87.9034 47.5341 87.4574 48.0455 87.1449 48.6761C86.8324 49.3068 86.6761 49.983 86.6761 50.7045V51.8636C86.6761 52.8523 86.8466 53.6903 87.1875 54.3778C87.5341 55.0597 88.0142 55.5795 88.6278 55.9375C89.2415 56.2898 89.9545 56.4659 90.767 56.4659C91.2955 56.4659 91.7727 56.392 92.1989 56.2443C92.6307 56.0909 93.0028 55.8636 93.3153 55.5625C93.6278 55.2557 93.8693 54.875 94.0398 54.4205L95.983 54.9659C95.7784 55.625 95.4347 56.2045 94.9517 56.7045C94.4688 57.1989 93.8722 57.5852 93.1619 57.8636C92.4517 58.1364 91.6534 58.2727 90.767 58.2727ZM104.565 58.2727C103.338 58.2727 102.281 57.983 101.395 57.4034C100.509 56.8239 99.8267 56.0256 99.3494 55.0085C98.8722 53.9915 98.6335 52.8295 98.6335 51.5227C98.6335 50.1932 98.8778 49.0199 99.3665 48.0028C99.8608 46.9801 100.548 46.1818 101.429 45.608C102.315 45.0284 103.349 44.7386 104.531 44.7386C105.452 44.7386 106.281 44.9091 107.02 45.25C107.759 45.5909 108.364 46.0682 108.835 46.6818C109.307 47.2955 109.599 48.0114 109.713 48.8295H107.702C107.548 48.233 107.207 47.7045 106.679 47.2443C106.156 46.7784 105.452 46.5455 104.565 46.5455C103.781 46.5455 103.094 46.75 102.503 47.1591C101.918 47.5625 101.46 48.1335 101.131 48.8722C100.807 49.6051 100.645 50.4659 100.645 51.4545C100.645 52.4659 100.804 53.3466 101.122 54.0966C101.446 54.8466 101.901 55.429 102.486 55.8438C103.077 56.2585 103.77 56.4659 104.565 56.4659C105.088 56.4659 105.562 56.375 105.989 56.1932C106.415 56.0114 106.776 55.75 107.071 55.4091C107.366 55.0682 107.577 54.6591 107.702 54.1818H109.713C109.599 54.9545 109.318 55.6506 108.869 56.2699C108.426 56.8835 107.838 57.3722 107.105 57.7358C106.378 58.0938 105.531 58.2727 104.565 58.2727ZM118.347 44.9091V46.6136H111.562V44.9091H118.347ZM113.54 41.7727H115.551V54.25C115.551 54.8182 115.634 55.2443 115.798 55.5284C115.969 55.8068 116.185 55.9943 116.446 56.0909C116.713 56.1818 116.994 56.2273 117.29 56.2273C117.511 56.2273 117.693 56.2159 117.835 56.1932C117.977 56.1648 118.091 56.142 118.176 56.125L118.585 57.9318C118.449 57.983 118.259 58.0341 118.014 58.0852C117.77 58.142 117.46 58.1705 117.085 58.1705C116.517 58.1705 115.96 58.0483 115.415 57.804C114.875 57.5597 114.426 57.1875 114.068 56.6875C113.716 56.1875 113.54 55.5568 113.54 54.7955V41.7727ZM52.0004 69.5455H54.5231L60.4549 84.0341H60.6594L66.5913 69.5455H69.114V87H67.1367V73.7386H66.9663L61.5117 87H59.6026L54.1481 73.7386H53.9776V87H52.0004V69.5455ZM78.3974 87.2727C77.2156 87.2727 76.1786 86.9915 75.2866 86.429C74.4002 85.8665 73.707 85.0795 73.207 84.0682C72.7127 83.0568 72.4656 81.875 72.4656 80.5227C72.4656 79.1591 72.7127 77.9687 73.207 76.9517C73.707 75.9347 74.4002 75.1449 75.2866 74.5824C76.1786 74.0199 77.2156 73.7386 78.3974 73.7386C79.5792 73.7386 80.6133 74.0199 81.4996 74.5824C82.3917 75.1449 83.0849 75.9347 83.5792 76.9517C84.0792 77.9687 84.3292 79.1591 84.3292 80.5227C84.3292 81.875 84.0792 83.0568 83.5792 84.0682C83.0849 85.0795 82.3917 85.8665 81.4996 86.429C80.6133 86.9915 79.5792 87.2727 78.3974 87.2727ZM78.3974 85.4659C79.2951 85.4659 80.0337 85.2358 80.6133 84.7756C81.1928 84.3153 81.6218 83.7102 81.9002 82.9602C82.1786 82.2102 82.3178 81.3977 82.3178 80.5227C82.3178 79.6477 82.1786 78.8324 81.9002 78.0767C81.6218 77.321 81.1928 76.7102 80.6133 76.2443C80.0337 75.7784 79.2951 75.5455 78.3974 75.5455C77.4996 75.5455 76.761 75.7784 76.1815 76.2443C75.6019 76.7102 75.1729 77.321 74.8945 78.0767C74.6161 78.8324 74.4769 79.6477 74.4769 80.5227C74.4769 81.3977 74.6161 82.2102 74.8945 82.9602C75.1729 83.7102 75.6019 84.3153 76.1815 84.7756C76.761 85.2358 77.4996 85.4659 78.3974 85.4659ZM97.6353 73.9091L92.7944 87H90.7489L85.908 73.9091H88.0898L91.7035 84.3409H91.8398L95.4535 73.9091H97.6353ZM100.29 87V73.9091H102.301V87H100.29ZM101.313 71.7273C100.921 71.7273 100.583 71.5938 100.299 71.3267C100.02 71.0597 99.881 70.7386 99.881 70.3636C99.881 69.9886 100.02 69.6676 100.299 69.4006C100.583 69.1335 100.921 69 101.313 69C101.705 69 102.04 69.1335 102.319 69.4006C102.603 69.6676 102.745 69.9886 102.745 70.3636C102.745 70.7386 102.603 71.0597 102.319 71.3267C102.04 71.5938 101.705 71.7273 101.313 71.7273ZM111.474 87.2727C110.213 87.2727 109.125 86.9943 108.21 86.4375C107.301 85.875 106.599 85.0909 106.105 84.0852C105.616 83.0739 105.372 81.8977 105.372 80.5568C105.372 79.2159 105.616 78.0341 106.105 77.0114C106.599 75.983 107.287 75.1818 108.167 74.608C109.054 74.0284 110.088 73.7386 111.27 73.7386C111.951 73.7386 112.625 73.8523 113.289 74.0795C113.954 74.3068 114.559 74.6761 115.105 75.1875C115.65 75.6932 116.085 76.3636 116.409 77.1989C116.733 78.0341 116.895 79.0625 116.895 80.2841V81.1364H106.804V79.3977H114.849C114.849 78.6591 114.701 78 114.406 77.4205C114.116 76.8409 113.701 76.3835 113.162 76.0483C112.627 75.7131 111.997 75.5455 111.27 75.5455C110.468 75.5455 109.775 75.7443 109.19 76.142C108.61 76.5341 108.164 77.0455 107.852 77.6761C107.539 78.3068 107.383 78.983 107.383 79.7045V80.8636C107.383 81.8523 107.554 82.6903 107.895 83.3778C108.241 84.0597 108.721 84.5795 109.335 84.9375C109.949 85.2898 110.662 85.4659 111.474 85.4659C112.002 85.4659 112.48 85.392 112.906 85.2443C113.338 85.0909 113.71 84.8636 114.022 84.5625C114.335 84.2557 114.576 83.875 114.747 83.4205L116.69 83.9659C116.485 84.625 116.142 85.2045 115.659 85.7045C115.176 86.1989 114.579 86.5852 113.869 86.8636C113.159 87.1364 112.36 87.2727 111.474 87.2727Z" fill="black"/>
<path d="M211.128 44.9091C211.026 44.0455 210.611 43.375 209.884 42.8977C209.156 42.4205 208.264 42.1818 207.207 42.1818C206.435 42.1818 205.759 42.3068 205.179 42.5568C204.605 42.8068 204.156 43.1506 203.832 43.5881C203.514 44.0256 203.355 44.5227 203.355 45.0795C203.355 45.5455 203.466 45.946 203.688 46.2812C203.915 46.6108 204.205 46.8864 204.557 47.108C204.909 47.3239 205.278 47.5028 205.665 47.6449C206.051 47.7812 206.406 47.892 206.73 47.9773L208.503 48.4545C208.957 48.5739 209.463 48.7386 210.02 48.9489C210.582 49.1591 211.119 49.446 211.631 49.8097C212.148 50.1676 212.574 50.6278 212.909 51.1903C213.244 51.7528 213.412 52.4432 213.412 53.2614C213.412 54.2045 213.165 55.0568 212.67 55.8182C212.182 56.5795 211.466 57.1847 210.523 57.6335C209.585 58.0824 208.446 58.3068 207.105 58.3068C205.855 58.3068 204.773 58.1051 203.858 57.7017C202.949 57.2983 202.233 56.7358 201.71 56.0142C201.193 55.2926 200.901 54.4545 200.832 53.5H203.014C203.071 54.1591 203.293 54.7045 203.679 55.1364C204.071 55.5625 204.565 55.8807 205.162 56.0909C205.764 56.2955 206.412 56.3977 207.105 56.3977C207.912 56.3977 208.636 56.267 209.278 56.0057C209.92 55.7386 210.429 55.3693 210.804 54.8977C211.179 54.4205 211.366 53.8636 211.366 53.2273C211.366 52.6477 211.205 52.1761 210.881 51.8125C210.557 51.4489 210.131 51.1534 209.602 50.9261C209.074 50.6989 208.503 50.5 207.889 50.3295L205.741 49.7159C204.378 49.3239 203.298 48.7642 202.503 48.0369C201.707 47.3097 201.31 46.358 201.31 45.1818C201.31 44.2045 201.574 43.3523 202.102 42.625C202.636 41.892 203.352 41.3239 204.25 40.9205C205.153 40.5114 206.162 40.3068 207.276 40.3068C208.401 40.3068 209.401 40.5085 210.276 40.9119C211.151 41.3097 211.844 41.8551 212.355 42.5483C212.872 43.2415 213.145 44.0284 213.173 44.9091H211.128ZM222.103 58.2727C220.842 58.2727 219.754 57.9943 218.839 57.4375C217.93 56.875 217.228 56.0909 216.734 55.0852C216.245 54.0739 216.001 52.8977 216.001 51.5568C216.001 50.2159 216.245 49.0341 216.734 48.0114C217.228 46.983 217.915 46.1818 218.796 45.608C219.683 45.0284 220.717 44.7386 221.898 44.7386C222.58 44.7386 223.254 44.8523 223.918 45.0795C224.583 45.3068 225.188 45.6761 225.734 46.1875C226.279 46.6932 226.714 47.3636 227.038 48.1989C227.362 49.0341 227.523 50.0625 227.523 51.2841V52.1364H217.433V50.3977H225.478C225.478 49.6591 225.33 49 225.035 48.4205C224.745 47.8409 224.33 47.3835 223.79 47.0483C223.256 46.7131 222.626 46.5455 221.898 46.5455C221.097 46.5455 220.404 46.7443 219.819 47.142C219.239 47.5341 218.793 48.0455 218.481 48.6761C218.168 49.3068 218.012 49.983 218.012 50.7045V51.8636C218.012 52.8523 218.183 53.6903 218.523 54.3778C218.87 55.0597 219.35 55.5795 219.964 55.9375C220.577 56.2898 221.29 56.4659 222.103 56.4659C222.631 56.4659 223.109 56.392 223.535 56.2443C223.967 56.0909 224.339 55.8636 224.651 55.5625C224.964 55.2557 225.205 54.875 225.376 54.4205L227.319 54.9659C227.114 55.625 226.771 56.2045 226.288 56.7045C225.805 57.1989 225.208 57.5852 224.498 57.8636C223.788 58.1364 222.989 58.2727 222.103 58.2727ZM232.594 40.5455V58H230.583V40.5455H232.594ZM241.767 58.2727C240.506 58.2727 239.418 57.9943 238.503 57.4375C237.594 56.875 236.892 56.0909 236.398 55.0852C235.909 54.0739 235.665 52.8977 235.665 51.5568C235.665 50.2159 235.909 49.0341 236.398 48.0114C236.892 46.983 237.58 46.1818 238.46 45.608C239.347 45.0284 240.381 44.7386 241.562 44.7386C242.244 44.7386 242.918 44.8523 243.582 45.0795C244.247 45.3068 244.852 45.6761 245.398 46.1875C245.943 46.6932 246.378 47.3636 246.702 48.1989C247.026 49.0341 247.188 50.0625 247.188 51.2841V52.1364H237.097V50.3977H245.142C245.142 49.6591 244.994 49 244.699 48.4205C244.409 47.8409 243.994 47.3835 243.455 47.0483C242.92 46.7131 242.29 46.5455 241.562 46.5455C240.761 46.5455 240.068 46.7443 239.483 47.142C238.903 47.5341 238.457 48.0455 238.145 48.6761C237.832 49.3068 237.676 49.983 237.676 50.7045V51.8636C237.676 52.8523 237.847 53.6903 238.188 54.3778C238.534 55.0597 239.014 55.5795 239.628 55.9375C240.241 56.2898 240.955 56.4659 241.767 56.4659C242.295 56.4659 242.773 56.392 243.199 56.2443C243.631 56.0909 244.003 55.8636 244.315 55.5625C244.628 55.2557 244.869 54.875 245.04 54.4205L246.983 54.9659C246.778 55.625 246.435 56.2045 245.952 56.7045C245.469 57.1989 244.872 57.5852 244.162 57.8636C243.452 58.1364 242.653 58.2727 241.767 58.2727ZM255.565 58.2727C254.338 58.2727 253.281 57.983 252.395 57.4034C251.509 56.8239 250.827 56.0256 250.349 55.0085C249.872 53.9915 249.634 52.8295 249.634 51.5227C249.634 50.1932 249.878 49.0199 250.366 48.0028C250.861 46.9801 251.548 46.1818 252.429 45.608C253.315 45.0284 254.349 44.7386 255.531 44.7386C256.452 44.7386 257.281 44.9091 258.02 45.25C258.759 45.5909 259.364 46.0682 259.835 46.6818C260.307 47.2955 260.599 48.0114 260.713 48.8295H258.702C258.548 48.233 258.207 47.7045 257.679 47.2443C257.156 46.7784 256.452 46.5455 255.565 46.5455C254.781 46.5455 254.094 46.75 253.503 47.1591C252.918 47.5625 252.46 48.1335 252.131 48.8722C251.807 49.6051 251.645 50.4659 251.645 51.4545C251.645 52.4659 251.804 53.3466 252.122 54.0966C252.446 54.8466 252.901 55.429 253.486 55.8438C254.077 56.2585 254.77 56.4659 255.565 56.4659C256.088 56.4659 256.562 56.375 256.989 56.1932C257.415 56.0114 257.776 55.75 258.071 55.4091C258.366 55.0682 258.577 54.6591 258.702 54.1818H260.713C260.599 54.9545 260.318 55.6506 259.869 56.2699C259.426 56.8835 258.838 57.3722 258.105 57.7358C257.378 58.0938 256.531 58.2727 255.565 58.2727ZM269.347 44.9091V46.6136H262.562V44.9091H269.347ZM264.54 41.7727H266.551V54.25C266.551 54.8182 266.634 55.2443 266.798 55.5284C266.969 55.8068 267.185 55.9943 267.446 56.0909C267.713 56.1818 267.994 56.2273 268.29 56.2273C268.511 56.2273 268.693 56.2159 268.835 56.1932C268.977 56.1648 269.091 56.142 269.176 56.125L269.585 57.9318C269.449 57.983 269.259 58.0341 269.014 58.0852C268.77 58.142 268.46 58.1705 268.085 58.1705C267.517 58.1705 266.96 58.0483 266.415 57.804C265.875 57.5597 265.426 57.1875 265.068 56.6875C264.716 56.1875 264.54 55.5568 264.54 54.7955V41.7727ZM215.84 87H210.453V69.5455H216.078C217.772 69.5455 219.221 69.8949 220.425 70.5938C221.63 71.2869 222.553 72.2841 223.195 73.5852C223.837 74.8807 224.158 76.4318 224.158 78.2386C224.158 80.0568 223.834 81.6222 223.186 82.9347C222.539 84.2415 221.596 85.2472 220.357 85.9517C219.118 86.6506 217.613 87 215.84 87ZM212.567 85.125H215.703C217.147 85.125 218.343 84.8466 219.292 84.2898C220.24 83.733 220.948 82.9403 221.414 81.9119C221.88 80.8835 222.113 79.6591 222.113 78.2386C222.113 76.8295 221.882 75.6165 221.422 74.5994C220.962 73.5767 220.275 72.7926 219.36 72.2472C218.445 71.696 217.306 71.4205 215.942 71.4205H212.567V85.125ZM231.283 87.3068C230.453 87.3068 229.701 87.1506 229.025 86.8381C228.348 86.5199 227.811 86.0625 227.414 85.4659C227.016 84.8636 226.817 84.1364 226.817 83.2841C226.817 82.5341 226.965 81.9261 227.26 81.4602C227.556 80.9886 227.951 80.6193 228.445 80.3523C228.939 80.0852 229.485 79.8864 230.081 79.7557C230.684 79.6193 231.289 79.5114 231.897 79.4318C232.692 79.3295 233.337 79.2528 233.831 79.2017C234.331 79.1449 234.695 79.0511 234.922 78.9205C235.155 78.7898 235.272 78.5625 235.272 78.2386V78.1705C235.272 77.3295 235.042 76.6761 234.581 76.2102C234.127 75.7443 233.436 75.5114 232.51 75.5114C231.55 75.5114 230.797 75.7216 230.252 76.142C229.706 76.5625 229.323 77.0114 229.101 77.4886L227.192 76.8068C227.533 76.0114 227.988 75.392 228.556 74.9489C229.13 74.5 229.755 74.1875 230.431 74.0114C231.113 73.8295 231.783 73.7386 232.442 73.7386C232.863 73.7386 233.346 73.7898 233.891 73.892C234.442 73.9886 234.973 74.1903 235.485 74.4972C236.002 74.804 236.431 75.267 236.772 75.8864C237.113 76.5057 237.283 77.3352 237.283 78.375V87H235.272V85.2273H235.169C235.033 85.5114 234.806 85.8153 234.488 86.1392C234.169 86.4631 233.746 86.7386 233.218 86.9659C232.689 87.1932 232.044 87.3068 231.283 87.3068ZM231.59 85.5C232.385 85.5 233.056 85.3438 233.601 85.0312C234.152 84.7188 234.567 84.3153 234.846 83.821C235.13 83.3267 235.272 82.8068 235.272 82.2614V80.4205C235.186 80.5227 234.999 80.6165 234.709 80.7017C234.425 80.7812 234.096 80.8523 233.721 80.9148C233.351 80.9716 232.99 81.0227 232.638 81.0682C232.292 81.108 232.01 81.142 231.794 81.1705C231.272 81.2386 230.783 81.3494 230.328 81.5028C229.88 81.6506 229.516 81.875 229.238 82.1761C228.965 82.4716 228.828 82.875 228.828 83.3864C228.828 84.0852 229.087 84.6136 229.604 84.9716C230.127 85.3239 230.789 85.5 231.59 85.5ZM246.647 73.9091V75.6136H239.863V73.9091H246.647ZM241.841 70.7727H243.852V83.25C243.852 83.8182 243.934 84.2443 244.099 84.5284C244.27 84.8068 244.485 84.9943 244.747 85.0909C245.014 85.1818 245.295 85.2273 245.591 85.2273C245.812 85.2273 245.994 85.2159 246.136 85.1932C246.278 85.1648 246.392 85.142 246.477 85.125L246.886 86.9318C246.75 86.983 246.559 87.0341 246.315 87.0852C246.071 87.142 245.761 87.1705 245.386 87.1705C244.818 87.1705 244.261 87.0483 243.716 86.804C243.176 86.5597 242.727 86.1875 242.369 85.6875C242.017 85.1875 241.841 84.5568 241.841 83.7955V70.7727ZM255.021 87.2727C253.76 87.2727 252.672 86.9943 251.757 86.4375C250.848 85.875 250.146 85.0909 249.652 84.0852C249.163 83.0739 248.919 81.8977 248.919 80.5568C248.919 79.2159 249.163 78.0341 249.652 77.0114C250.146 75.983 250.833 75.1818 251.714 74.608C252.6 74.0284 253.635 73.7386 254.816 73.7386C255.498 73.7386 256.172 73.8523 256.836 74.0795C257.501 74.3068 258.106 74.6761 258.652 75.1875C259.197 75.6932 259.632 76.3636 259.956 77.1989C260.279 78.0341 260.441 79.0625 260.441 80.2841V81.1364H250.35V79.3977H258.396C258.396 78.6591 258.248 78 257.953 77.4205C257.663 76.8409 257.248 76.3835 256.708 76.0483C256.174 75.7131 255.544 75.5455 254.816 75.5455C254.015 75.5455 253.322 75.7443 252.737 76.142C252.157 76.5341 251.711 77.0455 251.399 77.6761C251.086 78.3068 250.93 78.983 250.93 79.7045V80.8636C250.93 81.8523 251.1 82.6903 251.441 83.3778C251.788 84.0597 252.268 84.5795 252.882 84.9375C253.495 85.2898 254.208 85.4659 255.021 85.4659C255.549 85.4659 256.027 85.392 256.453 85.2443C256.885 85.0909 257.257 84.8636 257.569 84.5625C257.882 84.2557 258.123 83.875 258.294 83.4205L260.237 83.9659C260.032 84.625 259.689 85.2045 259.206 85.7045C258.723 86.1989 258.126 86.5852 257.416 86.8636C256.706 87.1364 255.907 87.2727 255.021 87.2727Z" fill="black"/>
<path d="M365.128 44.9091C365.026 44.0455 364.611 43.375 363.884 42.8977C363.156 42.4205 362.264 42.1818 361.207 42.1818C360.435 42.1818 359.759 42.3068 359.179 42.5568C358.605 42.8068 358.156 43.1506 357.832 43.5881C357.514 44.0256 357.355 44.5227 357.355 45.0795C357.355 45.5455 357.466 45.946 357.688 46.2812C357.915 46.6108 358.205 46.8864 358.557 47.108C358.909 47.3239 359.278 47.5028 359.665 47.6449C360.051 47.7812 360.406 47.892 360.73 47.9773L362.503 48.4545C362.957 48.5739 363.463 48.7386 364.02 48.9489C364.582 49.1591 365.119 49.446 365.631 49.8097C366.148 50.1676 366.574 50.6278 366.909 51.1903C367.244 51.7528 367.412 52.4432 367.412 53.2614C367.412 54.2045 367.165 55.0568 366.67 55.8182C366.182 56.5795 365.466 57.1847 364.523 57.6335C363.585 58.0824 362.446 58.3068 361.105 58.3068C359.855 58.3068 358.773 58.1051 357.858 57.7017C356.949 57.2983 356.233 56.7358 355.71 56.0142C355.193 55.2926 354.901 54.4545 354.832 53.5H357.014C357.071 54.1591 357.293 54.7045 357.679 55.1364C358.071 55.5625 358.565 55.8807 359.162 56.0909C359.764 56.2955 360.412 56.3977 361.105 56.3977C361.912 56.3977 362.636 56.267 363.278 56.0057C363.92 55.7386 364.429 55.3693 364.804 54.8977C365.179 54.4205 365.366 53.8636 365.366 53.2273C365.366 52.6477 365.205 52.1761 364.881 51.8125C364.557 51.4489 364.131 51.1534 363.602 50.9261C363.074 50.6989 362.503 50.5 361.889 50.3295L359.741 49.7159C358.378 49.3239 357.298 48.7642 356.503 48.0369C355.707 47.3097 355.31 46.358 355.31 45.1818C355.31 44.2045 355.574 43.3523 356.102 42.625C356.636 41.892 357.352 41.3239 358.25 40.9205C359.153 40.5114 360.162 40.3068 361.276 40.3068C362.401 40.3068 363.401 40.5085 364.276 40.9119C365.151 41.3097 365.844 41.8551 366.355 42.5483C366.872 43.2415 367.145 44.0284 367.173 44.9091H365.128ZM376.103 58.2727C374.842 58.2727 373.754 57.9943 372.839 57.4375C371.93 56.875 371.228 56.0909 370.734 55.0852C370.245 54.0739 370.001 52.8977 370.001 51.5568C370.001 50.2159 370.245 49.0341 370.734 48.0114C371.228 46.983 371.915 46.1818 372.796 45.608C373.683 45.0284 374.717 44.7386 375.898 44.7386C376.58 44.7386 377.254 44.8523 377.918 45.0795C378.583 45.3068 379.188 45.6761 379.734 46.1875C380.279 46.6932 380.714 47.3636 381.038 48.1989C381.362 49.0341 381.523 50.0625 381.523 51.2841V52.1364H371.433V50.3977H379.478C379.478 49.6591 379.33 49 379.035 48.4205C378.745 47.8409 378.33 47.3835 377.79 47.0483C377.256 46.7131 376.626 46.5455 375.898 46.5455C375.097 46.5455 374.404 46.7443 373.819 47.142C373.239 47.5341 372.793 48.0455 372.481 48.6761C372.168 49.3068 372.012 49.983 372.012 50.7045V51.8636C372.012 52.8523 372.183 53.6903 372.523 54.3778C372.87 55.0597 373.35 55.5795 373.964 55.9375C374.577 56.2898 375.29 56.4659 376.103 56.4659C376.631 56.4659 377.109 56.392 377.535 56.2443C377.967 56.0909 378.339 55.8636 378.651 55.5625C378.964 55.2557 379.205 54.875 379.376 54.4205L381.319 54.9659C381.114 55.625 380.771 56.2045 380.288 56.7045C379.805 57.1989 379.208 57.5852 378.498 57.8636C377.788 58.1364 376.989 58.2727 376.103 58.2727ZM386.594 40.5455V58H384.583V40.5455H386.594ZM395.767 58.2727C394.506 58.2727 393.418 57.9943 392.503 57.4375C391.594 56.875 390.892 56.0909 390.398 55.0852C389.909 54.0739 389.665 52.8977 389.665 51.5568C389.665 50.2159 389.909 49.0341 390.398 48.0114C390.892 46.983 391.58 46.1818 392.46 45.608C393.347 45.0284 394.381 44.7386 395.562 44.7386C396.244 44.7386 396.918 44.8523 397.582 45.0795C398.247 45.3068 398.852 45.6761 399.398 46.1875C399.943 46.6932 400.378 47.3636 400.702 48.1989C401.026 49.0341 401.188 50.0625 401.188 51.2841V52.1364H391.097V50.3977H399.142C399.142 49.6591 398.994 49 398.699 48.4205C398.409 47.8409 397.994 47.3835 397.455 47.0483C396.92 46.7131 396.29 46.5455 395.562 46.5455C394.761 46.5455 394.068 46.7443 393.483 47.142C392.903 47.5341 392.457 48.0455 392.145 48.6761C391.832 49.3068 391.676 49.983 391.676 50.7045V51.8636C391.676 52.8523 391.847 53.6903 392.188 54.3778C392.534 55.0597 393.014 55.5795 393.628 55.9375C394.241 56.2898 394.955 56.4659 395.767 56.4659C396.295 56.4659 396.773 56.392 397.199 56.2443C397.631 56.0909 398.003 55.8636 398.315 55.5625C398.628 55.2557 398.869 54.875 399.04 54.4205L400.983 54.9659C400.778 55.625 400.435 56.2045 399.952 56.7045C399.469 57.1989 398.872 57.5852 398.162 57.8636C397.452 58.1364 396.653 58.2727 395.767 58.2727ZM409.565 58.2727C408.338 58.2727 407.281 57.983 406.395 57.4034C405.509 56.8239 404.827 56.0256 404.349 55.0085C403.872 53.9915 403.634 52.8295 403.634 51.5227C403.634 50.1932 403.878 49.0199 404.366 48.0028C404.861 46.9801 405.548 46.1818 406.429 45.608C407.315 45.0284 408.349 44.7386 409.531 44.7386C410.452 44.7386 411.281 44.9091 412.02 45.25C412.759 45.5909 413.364 46.0682 413.835 46.6818C414.307 47.2955 414.599 48.0114 414.713 48.8295H412.702C412.548 48.233 412.207 47.7045 411.679 47.2443C411.156 46.7784 410.452 46.5455 409.565 46.5455C408.781 46.5455 408.094 46.75 407.503 47.1591C406.918 47.5625 406.46 48.1335 406.131 48.8722C405.807 49.6051 405.645 50.4659 405.645 51.4545C405.645 52.4659 405.804 53.3466 406.122 54.0966C406.446 54.8466 406.901 55.429 407.486 55.8438C408.077 56.2585 408.77 56.4659 409.565 56.4659C410.088 56.4659 410.562 56.375 410.989 56.1932C411.415 56.0114 411.776 55.75 412.071 55.4091C412.366 55.0682 412.577 54.6591 412.702 54.1818H414.713C414.599 54.9545 414.318 55.6506 413.869 56.2699C413.426 56.8835 412.838 57.3722 412.105 57.7358C411.378 58.0938 410.531 58.2727 409.565 58.2727ZM423.347 44.9091V46.6136H416.562V44.9091H423.347ZM418.54 41.7727H420.551V54.25C420.551 54.8182 420.634 55.2443 420.798 55.5284C420.969 55.8068 421.185 55.9943 421.446 56.0909C421.713 56.1818 421.994 56.2273 422.29 56.2273C422.511 56.2273 422.693 56.2159 422.835 56.1932C422.977 56.1648 423.091 56.142 423.176 56.125L423.585 57.9318C423.449 57.983 423.259 58.0341 423.014 58.0852C422.77 58.142 422.46 58.1705 422.085 58.1705C421.517 58.1705 420.96 58.0483 420.415 57.804C419.875 57.5597 419.426 57.1875 419.068 56.6875C418.716 56.1875 418.54 55.5568 418.54 54.7955V41.7727ZM374.901 73.9091C374.799 73.0455 374.384 72.375 373.657 71.8977C372.93 71.4205 372.038 71.1818 370.981 71.1818C370.208 71.1818 369.532 71.3068 368.952 71.5568C368.379 71.8068 367.93 72.1506 367.606 72.5881C367.288 73.0256 367.129 73.5227 367.129 74.0795C367.129 74.5455 367.239 74.946 367.461 75.2812C367.688 75.6108 367.978 75.8864 368.33 76.108C368.683 76.3239 369.052 76.5028 369.438 76.6449C369.825 76.7812 370.18 76.892 370.504 76.9773L372.276 77.4545C372.731 77.5739 373.237 77.7386 373.793 77.9489C374.356 78.1591 374.893 78.446 375.404 78.8097C375.921 79.1676 376.347 79.6278 376.683 80.1903C377.018 80.7528 377.185 81.4432 377.185 82.2614C377.185 83.2045 376.938 84.0568 376.444 84.8182C375.955 85.5795 375.239 86.1847 374.296 86.6335C373.359 87.0824 372.219 87.3068 370.879 87.3068C369.629 87.3068 368.546 87.1051 367.631 86.7017C366.722 86.2983 366.006 85.7358 365.484 85.0142C364.967 84.2926 364.674 83.4545 364.606 82.5H366.788C366.844 83.1591 367.066 83.7045 367.452 84.1364C367.844 84.5625 368.339 84.8807 368.935 85.0909C369.538 85.2955 370.185 85.3977 370.879 85.3977C371.685 85.3977 372.41 85.267 373.052 85.0057C373.694 84.7386 374.202 84.3693 374.577 83.8977C374.952 83.4205 375.14 82.8636 375.14 82.2273C375.14 81.6477 374.978 81.1761 374.654 80.8125C374.33 80.4489 373.904 80.1534 373.376 79.9261C372.847 79.6989 372.276 79.5 371.663 79.3295L369.515 78.7159C368.151 78.3239 367.072 77.7642 366.276 77.0369C365.481 76.3097 365.083 75.358 365.083 74.1818C365.083 73.2045 365.347 72.3523 365.876 71.625C366.41 70.892 367.126 70.3239 368.023 69.9205C368.927 69.5114 369.935 69.3068 371.049 69.3068C372.174 69.3068 373.174 69.5085 374.049 69.9119C374.924 70.3097 375.617 70.8551 376.129 71.5483C376.646 72.2415 376.918 73.0284 376.947 73.9091H374.901ZM385.876 87.2727C384.615 87.2727 383.527 86.9943 382.612 86.4375C381.703 85.875 381.001 85.0909 380.507 84.0852C380.018 83.0739 379.774 81.8977 379.774 80.5568C379.774 79.2159 380.018 78.0341 380.507 77.0114C381.001 75.983 381.689 75.1818 382.57 74.608C383.456 74.0284 384.49 73.7386 385.672 73.7386C386.354 73.7386 387.027 73.8523 387.692 74.0795C388.357 74.3068 388.962 74.6761 389.507 75.1875C390.053 75.6932 390.487 76.3636 390.811 77.1989C391.135 78.0341 391.297 79.0625 391.297 80.2841V81.1364H381.206V79.3977H389.251C389.251 78.6591 389.104 78 388.808 77.4205C388.518 76.8409 388.104 76.3835 387.564 76.0483C387.03 75.7131 386.399 75.5455 385.672 75.5455C384.871 75.5455 384.178 75.7443 383.592 76.142C383.013 76.5341 382.567 77.0455 382.254 77.6761C381.942 78.3068 381.786 78.983 381.786 79.7045V80.8636C381.786 81.8523 381.956 82.6903 382.297 83.3778C382.643 84.0597 383.124 84.5795 383.737 84.9375C384.351 85.2898 385.064 85.4659 385.876 85.4659C386.405 85.4659 386.882 85.392 387.308 85.2443C387.74 85.0909 388.112 84.8636 388.425 84.5625C388.737 84.2557 388.979 83.875 389.149 83.4205L391.092 83.9659C390.888 84.625 390.544 85.2045 390.061 85.7045C389.578 86.1989 388.982 86.5852 388.271 86.8636C387.561 87.1364 386.763 87.2727 385.876 87.2727ZM398.209 87.3068C397.379 87.3068 396.626 87.1506 395.95 86.8381C395.274 86.5199 394.737 86.0625 394.339 85.4659C393.942 84.8636 393.743 84.1364 393.743 83.2841C393.743 82.5341 393.891 81.9261 394.186 81.4602C394.482 80.9886 394.876 80.6193 395.371 80.3523C395.865 80.0852 396.411 79.8864 397.007 79.7557C397.609 79.6193 398.214 79.5114 398.822 79.4318C399.618 79.3295 400.263 79.2528 400.757 79.2017C401.257 79.1449 401.621 79.0511 401.848 78.9205C402.081 78.7898 402.197 78.5625 402.197 78.2386V78.1705C402.197 77.3295 401.967 76.6761 401.507 76.2102C401.053 75.7443 400.362 75.5114 399.436 75.5114C398.476 75.5114 397.723 75.7216 397.178 76.142C396.632 76.5625 396.249 77.0114 396.027 77.4886L394.118 76.8068C394.459 76.0114 394.913 75.392 395.482 74.9489C396.055 74.5 396.68 74.1875 397.357 74.0114C398.038 73.8295 398.709 73.7386 399.368 73.7386C399.788 73.7386 400.271 73.7898 400.817 73.892C401.368 73.9886 401.899 74.1903 402.411 74.4972C402.928 74.804 403.357 75.267 403.697 75.8864C404.038 76.5057 404.209 77.3352 404.209 78.375V87H402.197V85.2273H402.095C401.959 85.5114 401.732 85.8153 401.413 86.1392C401.095 86.4631 400.672 86.7386 400.143 86.9659C399.615 87.1932 398.97 87.3068 398.209 87.3068ZM398.516 85.5C399.311 85.5 399.982 85.3438 400.527 85.0312C401.078 84.7188 401.493 84.3153 401.771 83.821C402.055 83.3267 402.197 82.8068 402.197 82.2614V80.4205C402.112 80.5227 401.925 80.6165 401.635 80.7017C401.351 80.7812 401.021 80.8523 400.646 80.9148C400.277 80.9716 399.916 81.0227 399.564 81.0682C399.217 81.108 398.936 81.142 398.72 81.1705C398.197 81.2386 397.709 81.3494 397.254 81.5028C396.805 81.6506 396.442 81.875 396.163 82.1761C395.891 82.4716 395.754 82.875 395.754 83.3864C395.754 84.0852 396.013 84.6136 396.53 84.9716C397.053 85.3239 397.714 85.5 398.516 85.5ZM413.573 73.9091V75.6136H406.789V73.9091H413.573ZM408.766 70.7727H410.778V83.25C410.778 83.8182 410.86 84.2443 411.025 84.5284C411.195 84.8068 411.411 84.9943 411.673 85.0909C411.94 85.1818 412.221 85.2273 412.516 85.2273C412.738 85.2273 412.92 85.2159 413.062 85.1932C413.204 85.1648 413.317 85.142 413.403 85.125L413.812 86.9318C413.675 86.983 413.485 87.0341 413.241 87.0852C412.996 87.142 412.687 87.1705 412.312 87.1705C411.744 87.1705 411.187 87.0483 410.641 86.804C410.102 86.5597 409.653 86.1875 409.295 85.6875C408.942 85.1875 408.766 84.5568 408.766 83.7955V70.7727Z" fill="black"/>
<path d="M571.5 64C571.5 91.3381 549.338 113.5 522 113.5C494.662 113.5 472.5 91.3381 472.5 64C472.5 36.6619 494.662 14.5 522 14.5C549.338 14.5 571.5 36.6619 571.5 64Z" fill="white" stroke="black"/>
<path d="M496.871 73H491.485V55.5455H497.11C498.803 55.5455 500.252 55.8949 501.456 56.5938C502.661 57.2869 503.584 58.2841 504.226 59.5852C504.868 60.8807 505.189 62.4318 505.189 64.2386C505.189 66.0568 504.865 67.6222 504.218 68.9347C503.57 70.2415 502.627 71.2472 501.388 71.9517C500.15 72.6506 498.644 73 496.871 73ZM493.598 71.125H496.735C498.178 71.125 499.374 70.8466 500.323 70.2898C501.272 69.733 501.979 68.9403 502.445 67.9119C502.911 66.8835 503.144 65.6591 503.144 64.2386C503.144 62.8295 502.914 61.6165 502.453 60.5994C501.993 59.5767 501.306 58.7926 500.391 58.2472C499.476 57.696 498.337 57.4205 496.973 57.4205H493.598V71.125ZM513.78 73.2727C512.598 73.2727 511.561 72.9915 510.669 72.429C509.783 71.8665 509.09 71.0795 508.59 70.0682C508.096 69.0568 507.848 67.875 507.848 66.5227C507.848 65.1591 508.096 63.9687 508.59 62.9517C509.09 61.9347 509.783 61.1449 510.669 60.5824C511.561 60.0199 512.598 59.7386 513.78 59.7386C514.962 59.7386 515.996 60.0199 516.882 60.5824C517.775 61.1449 518.468 61.9347 518.962 62.9517C519.462 63.9687 519.712 65.1591 519.712 66.5227C519.712 67.875 519.462 69.0568 518.962 70.0682C518.468 71.0795 517.775 71.8665 516.882 72.429C515.996 72.9915 514.962 73.2727 513.78 73.2727ZM513.78 71.4659C514.678 71.4659 515.417 71.2358 515.996 70.7756C516.576 70.3153 517.005 69.7102 517.283 68.9602C517.561 68.2102 517.701 67.3977 517.701 66.5227C517.701 65.6477 517.561 64.8324 517.283 64.0767C517.005 63.321 516.576 62.7102 515.996 62.2443C515.417 61.7784 514.678 61.5455 513.78 61.5455C512.882 61.5455 512.144 61.7784 511.564 62.2443C510.985 62.7102 510.556 63.321 510.277 64.0767C509.999 64.8324 509.86 65.6477 509.86 66.5227C509.86 67.3977 509.999 68.2102 510.277 68.9602C510.556 69.7102 510.985 70.3153 511.564 70.7756C512.144 71.2358 512.882 71.4659 513.78 71.4659ZM524.794 65.125V73H522.782V59.9091H524.725V61.9545H524.896C525.203 61.2898 525.669 60.7557 526.294 60.3523C526.919 59.9432 527.725 59.7386 528.714 59.7386C529.6 59.7386 530.376 59.9205 531.041 60.2841C531.706 60.642 532.223 61.1875 532.592 61.9205C532.961 62.6477 533.146 63.5682 533.146 64.6818V73H531.135V64.8182C531.135 63.7898 530.868 62.9886 530.333 62.4148C529.799 61.8352 529.066 61.5455 528.135 61.5455C527.493 61.5455 526.919 61.6847 526.413 61.9631C525.913 62.2415 525.518 62.6477 525.228 63.1818C524.939 63.7159 524.794 64.3636 524.794 65.125ZM542.31 73.2727C541.049 73.2727 539.961 72.9943 539.046 72.4375C538.137 71.875 537.435 71.0909 536.941 70.0852C536.452 69.0739 536.208 67.8977 536.208 66.5568C536.208 65.2159 536.452 64.0341 536.941 63.0114C537.435 61.983 538.123 61.1818 539.003 60.608C539.89 60.0284 540.924 59.7386 542.105 59.7386C542.787 59.7386 543.461 59.8523 544.125 60.0795C544.79 60.3068 545.395 60.6761 545.941 61.1875C546.486 61.6932 546.921 62.3636 547.245 63.1989C547.569 64.0341 547.73 65.0625 547.73 66.2841V67.1364H537.64V65.3977H545.685C545.685 64.6591 545.537 64 545.242 63.4205C544.952 62.8409 544.537 62.3835 543.998 62.0483C543.463 61.7131 542.833 61.5455 542.105 61.5455C541.304 61.5455 540.611 61.7443 540.026 62.142C539.446 62.5341 539 63.0455 538.688 63.6761C538.375 64.3068 538.219 64.983 538.219 65.7045V66.8636C538.219 67.8523 538.39 68.6903 538.73 69.3778C539.077 70.0597 539.557 70.5795 540.171 70.9375C540.784 71.2898 541.498 71.4659 542.31 71.4659C542.838 71.4659 543.316 71.392 543.742 71.2443C544.174 71.0909 544.546 70.8636 544.858 70.5625C545.171 70.2557 545.412 69.875 545.583 69.4205L547.526 69.9659C547.321 70.625 546.978 71.2045 546.495 71.7045C546.012 72.1989 545.415 72.5852 544.705 72.8636C543.995 73.1364 543.196 73.2727 542.31 73.2727ZM553.449 55.5455L553.279 68.0909H551.301L551.131 55.5455H553.449ZM552.29 73.1364C551.87 73.1364 551.509 72.9858 551.208 72.6847C550.907 72.3835 550.756 72.0227 550.756 71.6023C550.756 71.1818 550.907 70.821 551.208 70.5199C551.509 70.2187 551.87 70.0682 552.29 70.0682C552.711 70.0682 553.071 70.2187 553.373 70.5199C553.674 70.821 553.824 71.1818 553.824 71.6023C553.824 71.8807 553.753 72.1364 553.611 72.3693C553.475 72.6023 553.29 72.7898 553.057 72.9318C552.83 73.0682 552.574 73.1364 552.29 73.1364Z" fill="black"/>
</svg>
