<svg width="744" height="410" viewBox="0 0 744 410" fill="none" xmlns="http://www.w3.org/2000/svg">
<rect x="1.5" y="1.5" width="741" height="407" fill="white"/>
<rect width="100" height="100" transform="translate(120 24)" fill="#CCCCCC"/>
<rect width="100" height="100" transform="translate(120 154)" fill="#FF8C00"/>
<rect width="100" height="100" transform="translate(120 286)" fill="#333333"/>
<path d="M319.091 193.091C318.818 190.788 317.712 189 315.773 187.727C313.833 186.455 311.455 185.818 308.636 185.818C306.576 185.818 304.773 186.152 303.227 186.818C301.697 187.485 300.5 188.402 299.636 189.568C298.788 190.735 298.364 192.061 298.364 193.545C298.364 194.788 298.659 195.856 299.25 196.75C299.856 197.629 300.629 198.364 301.568 198.955C302.508 199.53 303.492 200.008 304.523 200.386C305.553 200.75 306.5 201.045 307.364 201.273L312.091 202.545C313.303 202.864 314.652 203.303 316.136 203.864C317.636 204.424 319.068 205.189 320.432 206.159C321.811 207.114 322.947 208.341 323.841 209.841C324.735 211.341 325.182 213.182 325.182 215.364C325.182 217.879 324.523 220.152 323.205 222.182C321.902 224.212 319.992 225.826 317.477 227.023C314.977 228.22 311.939 228.818 308.364 228.818C305.03 228.818 302.144 228.28 299.705 227.205C297.28 226.129 295.371 224.629 293.977 222.705C292.598 220.78 291.818 218.545 291.636 216H297.455C297.606 217.758 298.197 219.212 299.227 220.364C300.273 221.5 301.591 222.348 303.182 222.909C304.788 223.455 306.515 223.727 308.364 223.727C310.515 223.727 312.447 223.379 314.159 222.682C315.871 221.97 317.227 220.985 318.227 219.727C319.227 218.455 319.727 216.97 319.727 215.273C319.727 213.727 319.295 212.47 318.432 211.5C317.568 210.53 316.432 209.742 315.023 209.136C313.614 208.53 312.091 208 310.455 207.545L304.727 205.909C301.091 204.864 298.212 203.371 296.091 201.432C293.97 199.492 292.909 196.955 292.909 193.818C292.909 191.212 293.614 188.939 295.023 187C296.447 185.045 298.356 183.53 300.75 182.455C303.159 181.364 305.848 180.818 308.818 180.818C311.818 180.818 314.485 181.356 316.818 182.432C319.152 183.492 321 184.947 322.364 186.795C323.742 188.644 324.47 190.742 324.545 193.091H319.091ZM348.358 228.727C344.994 228.727 342.093 227.985 339.653 226.5C337.229 225 335.358 222.909 334.04 220.227C332.737 217.53 332.085 214.394 332.085 210.818C332.085 207.242 332.737 204.091 334.04 201.364C335.358 198.621 337.191 196.485 339.54 194.955C341.903 193.409 344.661 192.636 347.812 192.636C349.631 192.636 351.426 192.939 353.199 193.545C354.972 194.152 356.585 195.136 358.04 196.5C359.494 197.848 360.653 199.636 361.517 201.864C362.381 204.091 362.812 206.833 362.812 210.091V212.364H335.903V207.727H357.358C357.358 205.758 356.964 204 356.176 202.455C355.403 200.909 354.297 199.689 352.858 198.795C351.434 197.902 349.752 197.455 347.812 197.455C345.676 197.455 343.828 197.985 342.267 199.045C340.722 200.091 339.532 201.455 338.699 203.136C337.866 204.818 337.449 206.621 337.449 208.545V211.636C337.449 214.273 337.903 216.508 338.812 218.341C339.737 220.159 341.017 221.545 342.653 222.5C344.29 223.439 346.191 223.909 348.358 223.909C349.767 223.909 351.04 223.712 352.176 223.318C353.328 222.909 354.32 222.303 355.153 221.5C355.987 220.682 356.631 219.667 357.085 218.455L362.267 219.909C361.722 221.667 360.805 223.212 359.517 224.545C358.229 225.864 356.638 226.894 354.744 227.636C352.85 228.364 350.722 228.727 348.358 228.727ZM376.335 181.455V228H370.972V181.455H376.335ZM400.795 228.727C397.432 228.727 394.53 227.985 392.091 226.5C389.667 225 387.795 222.909 386.477 220.227C385.174 217.53 384.523 214.394 384.523 210.818C384.523 207.242 385.174 204.091 386.477 201.364C387.795 198.621 389.629 196.485 391.977 194.955C394.341 193.409 397.098 192.636 400.25 192.636C402.068 192.636 403.864 192.939 405.636 193.545C407.409 194.152 409.023 195.136 410.477 196.5C411.932 197.848 413.091 199.636 413.955 201.864C414.818 204.091 415.25 206.833 415.25 210.091V212.364H388.341V207.727H409.795C409.795 205.758 409.402 204 408.614 202.455C407.841 200.909 406.735 199.689 405.295 198.795C403.871 197.902 402.189 197.455 400.25 197.455C398.114 197.455 396.265 197.985 394.705 199.045C393.159 200.091 391.97 201.455 391.136 203.136C390.303 204.818 389.886 206.621 389.886 208.545V211.636C389.886 214.273 390.341 216.508 391.25 218.341C392.174 220.159 393.455 221.545 395.091 222.5C396.727 223.439 398.629 223.909 400.795 223.909C402.205 223.909 403.477 223.712 404.614 223.318C405.765 222.909 406.758 222.303 407.591 221.5C408.424 220.682 409.068 219.667 409.523 218.455L414.705 219.909C414.159 221.667 413.242 223.212 411.955 224.545C410.667 225.864 409.076 226.894 407.182 227.636C405.288 228.364 403.159 228.727 400.795 228.727ZM437.591 228.727C434.318 228.727 431.5 227.955 429.136 226.409C426.773 224.864 424.955 222.735 423.682 220.023C422.409 217.311 421.773 214.212 421.773 210.727C421.773 207.182 422.424 204.053 423.727 201.341C425.045 198.614 426.879 196.485 429.227 194.955C431.591 193.409 434.348 192.636 437.5 192.636C439.955 192.636 442.167 193.091 444.136 194C446.106 194.909 447.72 196.182 448.977 197.818C450.235 199.455 451.015 201.364 451.318 203.545H445.955C445.545 201.955 444.636 200.545 443.227 199.318C441.833 198.076 439.955 197.455 437.591 197.455C435.5 197.455 433.667 198 432.091 199.091C430.53 200.167 429.311 201.689 428.432 203.659C427.568 205.614 427.136 207.909 427.136 210.545C427.136 213.242 427.561 215.591 428.409 217.591C429.273 219.591 430.485 221.144 432.045 222.25C433.621 223.356 435.47 223.909 437.591 223.909C438.985 223.909 440.25 223.667 441.386 223.182C442.523 222.697 443.485 222 444.273 221.091C445.061 220.182 445.621 219.091 445.955 217.818H451.318C451.015 219.879 450.265 221.735 449.068 223.386C447.886 225.023 446.318 226.326 444.364 227.295C442.424 228.25 440.167 228.727 437.591 228.727ZM474.341 193.091V197.636H456.25V193.091H474.341ZM461.523 184.727H466.886V218C466.886 219.515 467.106 220.652 467.545 221.409C468 222.152 468.576 222.652 469.273 222.909C469.985 223.152 470.735 223.273 471.523 223.273C472.114 223.273 472.598 223.242 472.977 223.182C473.356 223.106 473.659 223.045 473.886 223L474.977 227.818C474.614 227.955 474.106 228.091 473.455 228.227C472.803 228.379 471.977 228.455 470.977 228.455C469.462 228.455 467.977 228.129 466.523 227.477C465.083 226.826 463.886 225.833 462.932 224.5C461.992 223.167 461.523 221.485 461.523 219.455V184.727ZM496.67 228.727C493.307 228.727 490.405 227.985 487.966 226.5C485.542 225 483.67 222.909 482.352 220.227C481.049 217.53 480.398 214.394 480.398 210.818C480.398 207.242 481.049 204.091 482.352 201.364C483.67 198.621 485.504 196.485 487.852 194.955C490.216 193.409 492.973 192.636 496.125 192.636C497.943 192.636 499.739 192.939 501.511 193.545C503.284 194.152 504.898 195.136 506.352 196.5C507.807 197.848 508.966 199.636 509.83 201.864C510.693 204.091 511.125 206.833 511.125 210.091V212.364H484.216V207.727H505.67C505.67 205.758 505.277 204 504.489 202.455C503.716 200.909 502.61 199.689 501.17 198.795C499.746 197.902 498.064 197.455 496.125 197.455C493.989 197.455 492.14 197.985 490.58 199.045C489.034 200.091 487.845 201.455 487.011 203.136C486.178 204.818 485.761 206.621 485.761 208.545V211.636C485.761 214.273 486.216 216.508 487.125 218.341C488.049 220.159 489.33 221.545 490.966 222.5C492.602 223.439 494.504 223.909 496.67 223.909C498.08 223.909 499.352 223.712 500.489 223.318C501.64 222.909 502.633 222.303 503.466 221.5C504.299 220.682 504.943 219.667 505.398 218.455L510.58 219.909C510.034 221.667 509.117 223.212 507.83 224.545C506.542 225.864 504.951 226.894 503.057 227.636C501.163 228.364 499.034 228.727 496.67 228.727ZM532.466 228.727C529.557 228.727 526.989 227.992 524.761 226.523C522.534 225.038 520.792 222.947 519.534 220.25C518.277 217.538 517.648 214.333 517.648 210.636C517.648 206.97 518.277 203.788 519.534 201.091C520.792 198.394 522.542 196.311 524.784 194.841C527.027 193.371 529.617 192.636 532.557 192.636C534.83 192.636 536.625 193.015 537.943 193.773C539.277 194.515 540.292 195.364 540.989 196.318C541.701 197.258 542.254 198.03 542.648 198.636H543.102V181.455H548.466V228H543.284V222.636H542.648C542.254 223.273 541.693 224.076 540.966 225.045C540.239 226 539.201 226.856 537.852 227.614C536.504 228.356 534.708 228.727 532.466 228.727ZM533.193 223.909C535.345 223.909 537.163 223.348 538.648 222.227C540.133 221.091 541.261 219.523 542.034 217.523C542.807 215.508 543.193 213.182 543.193 210.545C543.193 207.939 542.814 205.659 542.057 203.705C541.299 201.735 540.178 200.205 538.693 199.114C537.208 198.008 535.375 197.455 533.193 197.455C530.92 197.455 529.027 198.038 527.511 199.205C526.011 200.356 524.883 201.924 524.125 203.909C523.383 205.879 523.011 208.091 523.011 210.545C523.011 213.03 523.39 215.288 524.148 217.318C524.92 219.333 526.057 220.939 527.557 222.136C529.072 223.318 530.951 223.909 533.193 223.909Z" fill="black"/>
<path d="M293.636 360V313.455H309.364C313 313.455 315.985 314.076 318.318 315.318C320.652 316.545 322.379 318.235 323.5 320.386C324.621 322.538 325.182 324.985 325.182 327.727C325.182 330.47 324.621 332.902 323.5 335.023C322.379 337.144 320.659 338.811 318.341 340.023C316.023 341.22 313.061 341.818 309.455 341.818H296.727V336.727H309.273C311.758 336.727 313.758 336.364 315.273 335.636C316.803 334.909 317.909 333.879 318.591 332.545C319.288 331.197 319.636 329.591 319.636 327.727C319.636 325.864 319.288 324.235 318.591 322.841C317.894 321.447 316.78 320.371 315.25 319.614C313.72 318.841 311.697 318.455 309.182 318.455H299.273V360H293.636ZM315.545 339.091L327 360H320.455L309.182 339.091H315.545ZM348.108 360.727C344.744 360.727 341.843 359.985 339.403 358.5C336.979 357 335.108 354.909 333.79 352.227C332.487 349.53 331.835 346.394 331.835 342.818C331.835 339.242 332.487 336.091 333.79 333.364C335.108 330.621 336.941 328.485 339.29 326.955C341.653 325.409 344.411 324.636 347.562 324.636C349.381 324.636 351.176 324.939 352.949 325.545C354.722 326.152 356.335 327.136 357.79 328.5C359.244 329.848 360.403 331.636 361.267 333.864C362.131 336.091 362.562 338.833 362.562 342.091V344.364H335.653V339.727H357.108C357.108 337.758 356.714 336 355.926 334.455C355.153 332.909 354.047 331.689 352.608 330.795C351.184 329.902 349.502 329.455 347.562 329.455C345.426 329.455 343.578 329.985 342.017 331.045C340.472 332.091 339.282 333.455 338.449 335.136C337.616 336.818 337.199 338.621 337.199 340.545V343.636C337.199 346.273 337.653 348.508 338.562 350.341C339.487 352.159 340.767 353.545 342.403 354.5C344.04 355.439 345.941 355.909 348.108 355.909C349.517 355.909 350.79 355.712 351.926 355.318C353.078 354.909 354.07 354.303 354.903 353.5C355.737 352.682 356.381 351.667 356.835 350.455L362.017 351.909C361.472 353.667 360.555 355.212 359.267 356.545C357.979 357.864 356.388 358.894 354.494 359.636C352.6 360.364 350.472 360.727 348.108 360.727ZM395.449 332.909L390.631 334.273C390.328 333.47 389.881 332.689 389.29 331.932C388.714 331.159 387.926 330.523 386.926 330.023C385.926 329.523 384.646 329.273 383.085 329.273C380.949 329.273 379.169 329.765 377.744 330.75C376.335 331.72 375.631 332.955 375.631 334.455C375.631 335.788 376.116 336.841 377.085 337.614C378.055 338.386 379.57 339.03 381.631 339.545L386.812 340.818C389.934 341.576 392.259 342.735 393.79 344.295C395.32 345.841 396.085 347.833 396.085 350.273C396.085 352.273 395.509 354.061 394.358 355.636C393.222 357.212 391.631 358.455 389.585 359.364C387.54 360.273 385.161 360.727 382.449 360.727C378.888 360.727 375.941 359.955 373.608 358.409C371.275 356.864 369.797 354.606 369.176 351.636L374.267 350.364C374.752 352.242 375.669 353.652 377.017 354.591C378.381 355.53 380.161 356 382.358 356C384.858 356 386.843 355.47 388.312 354.409C389.797 353.333 390.54 352.045 390.54 350.545C390.54 349.333 390.116 348.318 389.267 347.5C388.419 346.667 387.116 346.045 385.358 345.636L379.54 344.273C376.343 343.515 373.994 342.341 372.494 340.75C371.009 339.144 370.267 337.136 370.267 334.727C370.267 332.758 370.82 331.015 371.926 329.5C373.047 327.985 374.57 326.795 376.494 325.932C378.434 325.068 380.631 324.636 383.085 324.636C386.54 324.636 389.252 325.394 391.222 326.909C393.206 328.424 394.616 330.424 395.449 332.909ZM418.795 360.727C415.432 360.727 412.53 359.985 410.091 358.5C407.667 357 405.795 354.909 404.477 352.227C403.174 349.53 402.523 346.394 402.523 342.818C402.523 339.242 403.174 336.091 404.477 333.364C405.795 330.621 407.629 328.485 409.977 326.955C412.341 325.409 415.098 324.636 418.25 324.636C420.068 324.636 421.864 324.939 423.636 325.545C425.409 326.152 427.023 327.136 428.477 328.5C429.932 329.848 431.091 331.636 431.955 333.864C432.818 336.091 433.25 338.833 433.25 342.091V344.364H406.341V339.727H427.795C427.795 337.758 427.402 336 426.614 334.455C425.841 332.909 424.735 331.689 423.295 330.795C421.871 329.902 420.189 329.455 418.25 329.455C416.114 329.455 414.265 329.985 412.705 331.045C411.159 332.091 409.97 333.455 409.136 335.136C408.303 336.818 407.886 338.621 407.886 340.545V343.636C407.886 346.273 408.341 348.508 409.25 350.341C410.174 352.159 411.455 353.545 413.091 354.5C414.727 355.439 416.629 355.909 418.795 355.909C420.205 355.909 421.477 355.712 422.614 355.318C423.765 354.909 424.758 354.303 425.591 353.5C426.424 352.682 427.068 351.667 427.523 350.455L432.705 351.909C432.159 353.667 431.242 355.212 429.955 356.545C428.667 357.864 427.076 358.894 425.182 359.636C423.288 360.364 421.159 360.727 418.795 360.727ZM441.409 360V325.091H446.591V330.364H446.955C447.591 328.636 448.742 327.235 450.409 326.159C452.076 325.083 453.955 324.545 456.045 324.545C456.439 324.545 456.932 324.553 457.523 324.568C458.114 324.583 458.561 324.606 458.864 324.636V330.091C458.682 330.045 458.265 329.977 457.614 329.886C456.977 329.78 456.303 329.727 455.591 329.727C453.894 329.727 452.379 330.083 451.045 330.795C449.727 331.492 448.682 332.462 447.909 333.705C447.152 334.932 446.773 336.333 446.773 337.909V360H441.409ZM494.83 325.091L481.92 360H476.466L463.557 325.091H469.375L479.011 352.909H479.375L489.011 325.091H494.83ZM515.295 360.727C511.932 360.727 509.03 359.985 506.591 358.5C504.167 357 502.295 354.909 500.977 352.227C499.674 349.53 499.023 346.394 499.023 342.818C499.023 339.242 499.674 336.091 500.977 333.364C502.295 330.621 504.129 328.485 506.477 326.955C508.841 325.409 511.598 324.636 514.75 324.636C516.568 324.636 518.364 324.939 520.136 325.545C521.909 326.152 523.523 327.136 524.977 328.5C526.432 329.848 527.591 331.636 528.455 333.864C529.318 336.091 529.75 338.833 529.75 342.091V344.364H502.841V339.727H524.295C524.295 337.758 523.902 336 523.114 334.455C522.341 332.909 521.235 331.689 519.795 330.795C518.371 329.902 516.689 329.455 514.75 329.455C512.614 329.455 510.765 329.985 509.205 331.045C507.659 332.091 506.47 333.455 505.636 335.136C504.803 336.818 504.386 338.621 504.386 340.545V343.636C504.386 346.273 504.841 348.508 505.75 350.341C506.674 352.159 507.955 353.545 509.591 354.5C511.227 355.439 513.129 355.909 515.295 355.909C516.705 355.909 517.977 355.712 519.114 355.318C520.265 354.909 521.258 354.303 522.091 353.5C522.924 352.682 523.568 351.667 524.023 350.455L529.205 351.909C528.659 353.667 527.742 355.212 526.455 356.545C525.167 357.864 523.576 358.894 521.682 359.636C519.788 360.364 517.659 360.727 515.295 360.727ZM551.091 360.727C548.182 360.727 545.614 359.992 543.386 358.523C541.159 357.038 539.417 354.947 538.159 352.25C536.902 349.538 536.273 346.333 536.273 342.636C536.273 338.97 536.902 335.788 538.159 333.091C539.417 330.394 541.167 328.311 543.409 326.841C545.652 325.371 548.242 324.636 551.182 324.636C553.455 324.636 555.25 325.015 556.568 325.773C557.902 326.515 558.917 327.364 559.614 328.318C560.326 329.258 560.879 330.03 561.273 330.636H561.727V313.455H567.091V360H561.909V354.636H561.273C560.879 355.273 560.318 356.076 559.591 357.045C558.864 358 557.826 358.856 556.477 359.614C555.129 360.356 553.333 360.727 551.091 360.727ZM551.818 355.909C553.97 355.909 555.788 355.348 557.273 354.227C558.758 353.091 559.886 351.523 560.659 349.523C561.432 347.508 561.818 345.182 561.818 342.545C561.818 339.939 561.439 337.659 560.682 335.705C559.924 333.735 558.803 332.205 557.318 331.114C555.833 330.008 554 329.455 551.818 329.455C549.545 329.455 547.652 330.038 546.136 331.205C544.636 332.356 543.508 333.924 542.75 335.909C542.008 337.879 541.636 340.091 541.636 342.545C541.636 345.03 542.015 347.288 542.773 349.318C543.545 351.333 544.682 352.939 546.182 354.136C547.697 355.318 549.576 355.909 551.818 355.909Z" fill="black"/>
<path d="M293.636 98V51.4545H309.364C313 51.4545 315.985 52.0758 318.318 53.3182C320.652 54.5455 322.379 56.2348 323.5 58.3864C324.621 60.5379 325.182 62.9848 325.182 65.7273C325.182 68.4697 324.621 70.9015 323.5 73.0227C322.379 75.1439 320.659 76.8106 318.341 78.0227C316.023 79.2197 313.061 79.8182 309.455 79.8182H296.727V74.7273H309.273C311.758 74.7273 313.758 74.3636 315.273 73.6364C316.803 72.9091 317.909 71.8788 318.591 70.5455C319.288 69.197 319.636 67.5909 319.636 65.7273C319.636 63.8636 319.288 62.2348 318.591 60.8409C317.894 59.447 316.78 58.3712 315.25 57.6136C313.72 56.8409 311.697 56.4545 309.182 56.4545H299.273V98H293.636ZM315.545 77.0909L327 98H320.455L309.182 77.0909H315.545ZM348.108 98.7273C344.744 98.7273 341.843 97.9848 339.403 96.5C336.979 95 335.108 92.9091 333.79 90.2273C332.487 87.5303 331.835 84.3939 331.835 80.8182C331.835 77.2424 332.487 74.0909 333.79 71.3636C335.108 68.6212 336.941 66.4848 339.29 64.9545C341.653 63.4091 344.411 62.6364 347.562 62.6364C349.381 62.6364 351.176 62.9394 352.949 63.5455C354.722 64.1515 356.335 65.1364 357.79 66.5C359.244 67.8485 360.403 69.6364 361.267 71.8636C362.131 74.0909 362.562 76.8333 362.562 80.0909V82.3636H335.653V77.7273H357.108C357.108 75.7576 356.714 74 355.926 72.4545C355.153 70.9091 354.047 69.6894 352.608 68.7955C351.184 67.9015 349.502 67.4545 347.562 67.4545C345.426 67.4545 343.578 67.9848 342.017 69.0455C340.472 70.0909 339.282 71.4545 338.449 73.1364C337.616 74.8182 337.199 76.6212 337.199 78.5455V81.6364C337.199 84.2727 337.653 86.5076 338.562 88.3409C339.487 90.1591 340.767 91.5455 342.403 92.5C344.04 93.4394 345.941 93.9091 348.108 93.9091C349.517 93.9091 350.79 93.7121 351.926 93.3182C353.078 92.9091 354.07 92.303 354.903 91.5C355.737 90.6818 356.381 89.6667 356.835 88.4545L362.017 89.9091C361.472 91.6667 360.555 93.2121 359.267 94.5455C357.979 95.8636 356.388 96.8939 354.494 97.6364C352.6 98.3636 350.472 98.7273 348.108 98.7273ZM395.449 70.9091L390.631 72.2727C390.328 71.4697 389.881 70.6894 389.29 69.9318C388.714 69.1591 387.926 68.5227 386.926 68.0227C385.926 67.5227 384.646 67.2727 383.085 67.2727C380.949 67.2727 379.169 67.7652 377.744 68.75C376.335 69.7197 375.631 70.9545 375.631 72.4545C375.631 73.7879 376.116 74.8409 377.085 75.6136C378.055 76.3864 379.57 77.0303 381.631 77.5455L386.812 78.8182C389.934 79.5758 392.259 80.7348 393.79 82.2955C395.32 83.8409 396.085 85.8333 396.085 88.2727C396.085 90.2727 395.509 92.0606 394.358 93.6364C393.222 95.2121 391.631 96.4545 389.585 97.3636C387.54 98.2727 385.161 98.7273 382.449 98.7273C378.888 98.7273 375.941 97.9545 373.608 96.4091C371.275 94.8636 369.797 92.6061 369.176 89.6364L374.267 88.3636C374.752 90.2424 375.669 91.6515 377.017 92.5909C378.381 93.5303 380.161 94 382.358 94C384.858 94 386.843 93.4697 388.312 92.4091C389.797 91.3333 390.54 90.0455 390.54 88.5455C390.54 87.3333 390.116 86.3182 389.267 85.5C388.419 84.6667 387.116 84.0455 385.358 83.6364L379.54 82.2727C376.343 81.5152 373.994 80.3409 372.494 78.75C371.009 77.1439 370.267 75.1364 370.267 72.7273C370.267 70.7576 370.82 69.0152 371.926 67.5C373.047 65.9848 374.57 64.7955 376.494 63.9318C378.434 63.0682 380.631 62.6364 383.085 62.6364C386.54 62.6364 389.252 63.3939 391.222 64.9091C393.206 66.4242 394.616 68.4242 395.449 70.9091ZM418.795 98.7273C415.432 98.7273 412.53 97.9848 410.091 96.5C407.667 95 405.795 92.9091 404.477 90.2273C403.174 87.5303 402.523 84.3939 402.523 80.8182C402.523 77.2424 403.174 74.0909 404.477 71.3636C405.795 68.6212 407.629 66.4848 409.977 64.9545C412.341 63.4091 415.098 62.6364 418.25 62.6364C420.068 62.6364 421.864 62.9394 423.636 63.5455C425.409 64.1515 427.023 65.1364 428.477 66.5C429.932 67.8485 431.091 69.6364 431.955 71.8636C432.818 74.0909 433.25 76.8333 433.25 80.0909V82.3636H406.341V77.7273H427.795C427.795 75.7576 427.402 74 426.614 72.4545C425.841 70.9091 424.735 69.6894 423.295 68.7955C421.871 67.9015 420.189 67.4545 418.25 67.4545C416.114 67.4545 414.265 67.9848 412.705 69.0455C411.159 70.0909 409.97 71.4545 409.136 73.1364C408.303 74.8182 407.886 76.6212 407.886 78.5455V81.6364C407.886 84.2727 408.341 86.5076 409.25 88.3409C410.174 90.1591 411.455 91.5455 413.091 92.5C414.727 93.4394 416.629 93.9091 418.795 93.9091C420.205 93.9091 421.477 93.7121 422.614 93.3182C423.765 92.9091 424.758 92.303 425.591 91.5C426.424 90.6818 427.068 89.6667 427.523 88.4545L432.705 89.9091C432.159 91.6667 431.242 93.2121 429.955 94.5455C428.667 95.8636 427.076 96.8939 425.182 97.6364C423.288 98.3636 421.159 98.7273 418.795 98.7273ZM441.409 98V63.0909H446.591V68.3636H446.955C447.591 66.6364 448.742 65.2348 450.409 64.1591C452.076 63.0833 453.955 62.5455 456.045 62.5455C456.439 62.5455 456.932 62.553 457.523 62.5682C458.114 62.5833 458.561 62.6061 458.864 62.6364V68.0909C458.682 68.0455 458.265 67.9773 457.614 67.8864C456.977 67.7803 456.303 67.7273 455.591 67.7273C453.894 67.7273 452.379 68.0833 451.045 68.7955C449.727 69.4924 448.682 70.4621 447.909 71.7045C447.152 72.9318 446.773 74.3333 446.773 75.9091V98H441.409ZM494.83 63.0909L481.92 98H476.466L463.557 63.0909H469.375L479.011 90.9091H479.375L489.011 63.0909H494.83ZM511.119 98.8182C508.907 98.8182 506.9 98.4015 505.097 97.5682C503.294 96.7197 501.862 95.5 500.801 93.9091C499.741 92.303 499.21 90.3636 499.21 88.0909C499.21 86.0909 499.604 84.4697 500.392 83.2273C501.18 81.9697 502.233 80.9848 503.551 80.2727C504.869 79.5606 506.324 79.0303 507.915 78.6818C509.521 78.3182 511.134 78.0303 512.756 77.8182C514.877 77.5455 516.597 77.3409 517.915 77.2045C519.248 77.053 520.218 76.803 520.824 76.4545C521.445 76.1061 521.756 75.5 521.756 74.6364V74.4545C521.756 72.2121 521.142 70.4697 519.915 69.2273C518.703 67.9848 516.862 67.3636 514.392 67.3636C511.831 67.3636 509.824 67.9242 508.369 69.0455C506.915 70.1667 505.892 71.3636 505.301 72.6364L500.21 70.8182C501.119 68.697 502.331 67.0455 503.847 65.8636C505.377 64.6667 507.044 63.8333 508.847 63.3636C510.665 62.8788 512.453 62.6364 514.21 62.6364C515.331 62.6364 516.619 62.7727 518.074 63.0455C519.544 63.303 520.96 63.8409 522.324 64.6591C523.703 65.4773 524.847 66.7121 525.756 68.3636C526.665 70.0152 527.119 72.2273 527.119 75V98H521.756V93.2727H521.483C521.119 94.0303 520.513 94.8409 519.665 95.7045C518.816 96.5682 517.688 97.303 516.278 97.9091C514.869 98.5152 513.15 98.8182 511.119 98.8182ZM511.938 94C514.059 94 515.847 93.5833 517.301 92.75C518.771 91.9167 519.877 90.8409 520.619 89.5227C521.377 88.2045 521.756 86.8182 521.756 85.3636V80.4545C521.528 80.7273 521.028 80.9773 520.256 81.2045C519.498 81.4167 518.619 81.6061 517.619 81.7727C516.634 81.9242 515.672 82.0606 514.733 82.1818C513.809 82.2879 513.059 82.3788 512.483 82.4545C511.089 82.6364 509.786 82.9318 508.574 83.3409C507.377 83.7348 506.407 84.3333 505.665 85.1364C504.938 85.9242 504.574 87 504.574 88.3636C504.574 90.2273 505.263 91.6364 506.642 92.5909C508.036 93.5303 509.801 94 511.938 94ZM537.636 98V51.4545H543V68.6364H543.455C543.848 68.0303 544.394 67.2576 545.091 66.3182C545.803 65.3636 546.818 64.5152 548.136 63.7727C549.47 63.0152 551.273 62.6364 553.545 62.6364C556.485 62.6364 559.076 63.3712 561.318 64.8409C563.561 66.3106 565.311 68.3939 566.568 71.0909C567.826 73.7879 568.455 76.9697 568.455 80.6364C568.455 84.3333 567.826 87.5379 566.568 90.25C565.311 92.947 563.568 95.0379 561.341 96.5227C559.114 97.9924 556.545 98.7273 553.636 98.7273C551.394 98.7273 549.598 98.3561 548.25 97.6136C546.902 96.8561 545.864 96 545.136 95.0455C544.409 94.0758 543.848 93.2727 543.455 92.6364H542.818V98H537.636ZM542.909 80.5455C542.909 83.1818 543.295 85.5076 544.068 87.5227C544.841 89.5227 545.97 91.0909 547.455 92.2273C548.939 93.3485 550.758 93.9091 552.909 93.9091C555.152 93.9091 557.023 93.3182 558.523 92.1364C560.038 90.9394 561.174 89.3333 561.932 87.3182C562.705 85.2879 563.091 83.0303 563.091 80.5455C563.091 78.0909 562.712 75.8788 561.955 73.9091C561.212 71.9242 560.083 70.3561 558.568 69.2045C557.068 68.0379 555.182 67.4545 552.909 67.4545C550.727 67.4545 548.894 68.0076 547.409 69.1136C545.924 70.2045 544.803 71.7348 544.045 73.7045C543.288 75.6591 542.909 77.9394 542.909 80.5455ZM582.023 51.4545V98H576.659V51.4545H582.023ZM606.483 98.7273C603.119 98.7273 600.218 97.9848 597.778 96.5C595.354 95 593.483 92.9091 592.165 90.2273C590.862 87.5303 590.21 84.3939 590.21 80.8182C590.21 77.2424 590.862 74.0909 592.165 71.3636C593.483 68.6212 595.316 66.4848 597.665 64.9545C600.028 63.4091 602.786 62.6364 605.938 62.6364C607.756 62.6364 609.551 62.9394 611.324 63.5455C613.097 64.1515 614.71 65.1364 616.165 66.5C617.619 67.8485 618.778 69.6364 619.642 71.8636C620.506 74.0909 620.938 76.8333 620.938 80.0909V82.3636H594.028V77.7273H615.483C615.483 75.7576 615.089 74 614.301 72.4545C613.528 70.9091 612.422 69.6894 610.983 68.7955C609.559 67.9015 607.877 67.4545 605.938 67.4545C603.801 67.4545 601.953 67.9848 600.392 69.0455C598.847 70.0909 597.657 71.4545 596.824 73.1364C595.991 74.8182 595.574 76.6212 595.574 78.5455V81.6364C595.574 84.2727 596.028 86.5076 596.938 88.3409C597.862 90.1591 599.142 91.5455 600.778 92.5C602.415 93.4394 604.316 93.9091 606.483 93.9091C607.892 93.9091 609.165 93.7121 610.301 93.3182C611.453 92.9091 612.445 92.303 613.278 91.5C614.112 90.6818 614.756 89.6667 615.21 88.4545L620.392 89.9091C619.847 91.6667 618.93 93.2121 617.642 94.5455C616.354 95.8636 614.763 96.8939 612.869 97.6364C610.975 98.3636 608.847 98.7273 606.483 98.7273Z" fill="black"/>
<rect x="1.5" y="1.5" width="741" height="407" stroke="black" stroke-width="3"/>
</svg>
